<svg width="24" height="24" viewBox="0 0 24 24" fill="none" xmlns="http://www.w3.org/2000/svg">
<g id="Bell_pin">
<g id="Subtract">
<path fill-rule="evenodd" clip-rule="evenodd" d="M14.4554 2.47362C13.6944 2.16764 12.865 2 12 2C8.64398 2 5.82461 4.52345 5.45399 7.85899L5.20219 10.1252L5.19614 10.1793C5.08331 11.1625 4.76327 12.1106 4.25714 12.9611L4.22919 13.0077L3.65116 13.9711L3.62701 14.0114C3.38549 14.4138 3.16667 14.7785 3.02092 15.0879C2.8728 15.4024 2.71443 15.8286 2.79066 16.3117C2.86601 16.7893 3.11179 17.2233 3.48252 17.5337C3.85759 17.8476 4.30446 17.931 4.65035 17.9658C4.99072 18.0001 5.41598 18 5.88536 18L5.93226 18H18.0678L18.1147 18C18.5841 18 19.0093 18.0001 19.3497 17.9658C19.6956 17.931 20.1425 17.8476 20.5176 17.5337C20.8883 17.2233 21.1341 16.7893 21.2094 16.3117C21.2856 15.8286 21.1273 15.4024 20.9791 15.0879C20.8334 14.7785 20.6146 14.4138 20.373 14.0114L20.3489 13.9711L19.7709 13.0077L19.7429 12.9611C19.3642 12.3247 19.0897 11.6336 18.9282 10.914C18.6274 10.9705 18.3172 11 18 11C17.6161 11 17.2422 10.9567 16.8831 10.8748C17.0676 11.9715 17.4541 13.0259 18.0243 13.9839L18.0559 14.0367L18.6339 15.0001C18.9074 15.456 19.0722 15.733 19.1698 15.9401C19.1751 15.9514 19.18 15.9621 19.1845 15.972C19.1736 15.9733 19.162 15.9746 19.1495 15.9759C18.9218 15.9988 18.5994 16 18.0678 16H5.93226C5.40067 16 5.0783 15.9988 4.85055 15.9759C4.8381 15.9746 4.82645 15.9733 4.81559 15.972C4.82007 15.9621 4.82496 15.9514 4.8303 15.9401C4.92782 15.733 5.09264 15.456 5.36615 15.0001L5.94418 14.0367L5.97581 13.9839C6.62656 12.8904 7.03803 11.6714 7.1831 10.4073L7.18996 10.3461L7.44176 8.07985C7.69983 5.75718 9.66307 4 12 4C12.4631 4 12.9114 4.06898 13.3347 4.19767C13.5867 3.54594 13.9713 2.96023 14.4554 2.47362ZM16.9821 4.27804C16.3942 4.62632 16 5.26713 16 6C16 6.14503 16.0155 6.28645 16.0448 6.42272C16.1652 6.6476 16.2675 6.88404 16.3498 7.13021C16.7102 7.65547 17.3149 8 18 8C18.1919 8 18.3775 7.97298 18.5531 7.92254L18.5461 7.85899C18.3938 6.48875 17.8283 5.25555 16.9821 4.27804Z" fill="#161616"/>
<path fill-rule="evenodd" clip-rule="evenodd" d="M14.4554 2.47362C13.6944 2.16764 12.865 2 12 2C8.64398 2 5.82461 4.52345 5.45399 7.85899L5.20219 10.1252L5.19614 10.1793C5.08331 11.1625 4.76327 12.1106 4.25714 12.9611L4.22919 13.0077L3.65116 13.9711L3.62701 14.0114C3.38549 14.4138 3.16667 14.7785 3.02092 15.0879C2.8728 15.4024 2.71443 15.8286 2.79066 16.3117C2.86601 16.7893 3.11179 17.2233 3.48252 17.5337C3.85759 17.8476 4.30446 17.931 4.65035 17.9658C4.99072 18.0001 5.41598 18 5.88536 18L5.93226 18H18.0678L18.1147 18C18.5841 18 19.0093 18.0001 19.3497 17.9658C19.6956 17.931 20.1425 17.8476 20.5176 17.5337C20.8883 17.2233 21.1341 16.7893 21.2094 16.3117C21.2856 15.8286 21.1273 15.4024 20.9791 15.0879C20.8334 14.7785 20.6146 14.4138 20.373 14.0114L20.3489 13.9711L19.7709 13.0077L19.7429 12.9611C19.3642 12.3247 19.0897 11.6336 18.9282 10.914C18.6274 10.9705 18.3172 11 18 11C17.6161 11 17.2422 10.9567 16.8831 10.8748C17.0676 11.9715 17.4541 13.0259 18.0243 13.9839L18.0559 14.0367L18.6339 15.0001C18.9074 15.456 19.0722 15.733 19.1698 15.9401C19.1751 15.9514 19.18 15.9621 19.1845 15.972C19.1736 15.9733 19.162 15.9746 19.1495 15.9759C18.9218 15.9988 18.5994 16 18.0678 16H5.93226C5.40067 16 5.0783 15.9988 4.85055 15.9759C4.8381 15.9746 4.82645 15.9733 4.81559 15.972C4.82007 15.9621 4.82496 15.9514 4.8303 15.9401C4.92782 15.733 5.09264 15.456 5.36615 15.0001L5.94418 14.0367L5.97581 13.9839C6.62656 12.8904 7.03803 11.6714 7.1831 10.4073L7.18996 10.3461L7.44176 8.07985C7.69983 5.75718 9.66307 4 12 4C12.4631 4 12.9114 4.06898 13.3347 4.19767C13.5867 3.54594 13.9713 2.96023 14.4554 2.47362ZM16.9821 4.27804C16.3942 4.62632 16 5.26713 16 6C16 6.14503 16.0155 6.28645 16.0448 6.42272C16.1652 6.6476 16.2675 6.88404 16.3498 7.13021C16.7102 7.65547 17.3149 8 18 8C18.1919 8 18.3775 7.97298 18.5531 7.92254L18.5461 7.85899C18.3938 6.48875 17.8283 5.25555 16.9821 4.27804Z" fill="black" fill-opacity="0.2"/>
</g>
<g id="Ellipse 45">
<path d="M9.10222 17.6647C9.27315 18.6215 9.64978 19.467 10.1737 20.0701C10.6976 20.6731 11.3396 21 12 21C12.6604 21 13.3024 20.6731 13.8263 20.0701C14.3502 19.467 14.7269 18.6215 14.8978 17.6647" stroke="#161616" stroke-width="2" stroke-linecap="round"/>
<path d="M9.10222 17.6647C9.27315 18.6215 9.64978 19.467 10.1737 20.0701C10.6976 20.6731 11.3396 21 12 21C12.6604 21 13.3024 20.6731 13.8263 20.0701C14.3502 19.467 14.7269 18.6215 14.8978 17.6647" stroke="black" stroke-opacity="0.2" stroke-width="2" stroke-linecap="round"/>
</g>
<circle id="Ellipse 6" cx="18" cy="6" r="2.5" fill="#F5DF99" stroke="#F5DF99"/>
</g>
</svg>
