<svg width="24" height="24" viewBox="0 0 24 24" fill="none" xmlns="http://www.w3.org/2000/svg">
<g id="Iconly/Bold/Calling" opacity="0.64">
<g id="Calling">
<path id="Calling_2" fill-rule="evenodd" clip-rule="evenodd" d="M13.8847 4.00634C13.7062 3.98076 13.527 4.03353 13.3843 4.14705C13.2377 4.26217 13.1461 4.42845 13.1262 4.61473C13.084 4.99127 13.3557 5.33183 13.7317 5.3742C16.325 5.66361 18.3407 7.68382 18.6323 10.2852C18.6714 10.6338 18.9638 10.8968 19.3127 10.8968C19.339 10.8968 19.3645 10.8952 19.3908 10.892C19.5733 10.872 19.7358 10.7817 19.8505 10.6378C19.9645 10.4939 20.0162 10.3148 19.9955 10.1317C19.6322 6.88597 17.1202 4.3669 13.8847 4.00634ZM13.9345 6.79195C13.5537 6.7216 13.2039 6.96464 13.1314 7.33638C13.0589 7.70812 13.3027 8.07108 13.6732 8.14383C14.7886 8.36128 15.6499 9.22468 15.8682 10.3439V10.3447C15.9303 10.6669 16.2139 10.9011 16.5406 10.9011C16.5844 10.9011 16.6282 10.8971 16.6728 10.8891C17.0433 10.8148 17.2871 10.4526 17.2146 10.0801C16.8888 8.40844 15.6021 7.11733 13.9345 6.79195ZM15.2001 14.4724C15.5612 14.2642 15.9692 14.029 16.4837 14.1384C16.9498 14.2367 18.5385 15.5263 18.9735 15.9731C19.2587 16.2657 19.4173 16.5679 19.442 16.8701C19.485 18.0557 17.874 19.4092 17.5808 19.5779C17.1912 19.8585 16.7379 20 16.2288 20C15.7085 20 15.1285 19.8521 14.4959 19.5571C11.0636 18.1245 5.82042 12.9848 4.43413 9.57914C3.8589 8.31121 3.85491 7.26553 4.42457 6.47967C4.65163 6.11112 5.94631 4.57058 7.10554 4.61935C7.41387 4.64573 7.71343 4.80402 8.00742 5.09182C8.45199 5.52752 9.70922 7.12083 9.80642 7.58851C9.91398 8.10815 9.67815 8.52147 9.46861 8.88442C9.42392 8.96244 9.3637 9.05503 9.29773 9.15647C9.04736 9.54145 8.71411 10.0539 8.83203 10.381C9.67735 12.4564 11.6301 14.2671 13.7064 15.1177C14.0275 15.2344 14.5396 14.8988 14.9233 14.6473C15.0233 14.5818 15.1146 14.522 15.1915 14.4774L15.2001 14.4724Z" fill="#1B1D21"/>
</g>
</g>
</svg>
