<svg width="25" height="24" viewBox="0 0 25 24" fill="none" xmlns="http://www.w3.org/2000/svg">
<g id="icon/24/card" opacity="0.64">
<g id="icon/24/card_2">
<g id="Combined Shape">
<path fill-rule="evenodd" clip-rule="evenodd" d="M3.8089 7.83268C3.8089 6.91221 4.55509 6.16602 5.47557 6.16602H19.4557C20.3761 6.16602 21.1223 6.91221 21.1223 7.83268V8.66602H3.8089V7.83268ZM3.8089 11.166H21.1223V16.166C21.1223 17.0865 20.3761 17.8327 19.4557 17.8327H5.47557C4.55509 17.8327 3.8089 17.0865 3.8089 16.166V11.166ZM16.7616 13.666C16.3014 13.666 15.9283 14.0391 15.9283 14.4993C15.9283 14.9596 16.3014 15.3327 16.7616 15.3327H18.5577C19.0179 15.3327 19.391 14.9596 19.391 14.4993C19.391 14.0391 19.0179 13.666 18.5577 13.666H16.7616Z" fill="#161616"/>
<path fill-rule="evenodd" clip-rule="evenodd" d="M3.8089 7.83268C3.8089 6.91221 4.55509 6.16602 5.47557 6.16602H19.4557C20.3761 6.16602 21.1223 6.91221 21.1223 7.83268V8.66602H3.8089V7.83268ZM3.8089 11.166H21.1223V16.166C21.1223 17.0865 20.3761 17.8327 19.4557 17.8327H5.47557C4.55509 17.8327 3.8089 17.0865 3.8089 16.166V11.166ZM16.7616 13.666C16.3014 13.666 15.9283 14.0391 15.9283 14.4993C15.9283 14.9596 16.3014 15.3327 16.7616 15.3327H18.5577C19.0179 15.3327 19.391 14.9596 19.391 14.4993C19.391 14.0391 19.0179 13.666 18.5577 13.666H16.7616Z" fill="black" fill-opacity="0.2"/>
</g>
</g>
</g>
</svg>
