<svg width="15" height="14" viewBox="0 0 15 14" fill="none" xmlns="http://www.w3.org/2000/svg">
<path d="M7.5 0C3.36457 0 0 3.14027 0 7C0 10.8597 3.36457 14 7.5 14C11.6354 14 15 10.8597 15 7C15 3.14027 11.6354 0 7.5 0ZM7.5 13.125C3.88137 13.125 0.937504 10.3774 0.937504 7C0.937504 3.62262 3.88137 0.875004 7.5 0.875004C11.1186 0.875004 14.0625 3.62262 14.0625 7C14.0625 10.3774 11.1186 13.125 7.5 13.125Z" fill="black"/>
<path d="M7.96875 2.625H7.03125V7.18114L9.98108 9.93431L10.6439 9.31566L7.96875 6.81884V2.625Z" fill="black"/>
</svg>
