<svg width="15" height="14" viewBox="0 0 15 14" fill="none" xmlns="http://www.w3.org/2000/svg">
<g id="Group">
<g id="Group_2">
<g id="Group_3">
<path id="Vector" d="M12.1292 4.06749C12.291 4.06749 12.4222 3.94507 12.4222 3.79405V0.820335C12.4222 0.368002 12.0279 0 11.5433 0H0.87893C0.394288 0 0 0.368002 0 0.820335V13.18C0 13.6324 0.394288 14.0004 0.87893 14.0004H11.5433C12.0279 14.0004 12.4222 13.6324 12.4222 13.18V11.1655C12.4222 11.0145 12.291 10.8921 12.1292 10.8921C11.9675 10.8921 11.8363 11.0145 11.8363 11.1655V13.18C11.8363 13.3308 11.7048 13.4535 11.5433 13.4535H0.87893C0.717383 13.4535 0.585953 13.3308 0.585953 13.18V0.820335C0.585953 0.669557 0.717383 0.54689 0.87893 0.54689H11.5433C11.7048 0.54689 11.8363 0.669557 11.8363 0.820335V3.79405C11.8363 3.94507 11.9675 4.06749 12.1292 4.06749Z" fill="black"/>
</g>
</g>
<g id="Group_4">
<g id="Group_5">
<path id="Vector_2" d="M6.21101 1.47656C4.72477 1.47656 3.51562 2.6051 3.51562 3.99226C3.51562 4.71188 3.84112 5.3618 4.3618 5.82075C4.37156 5.83049 4.38193 5.8397 4.39327 5.8481C4.8729 6.25769 5.51121 6.50792 6.21098 6.50792C6.91076 6.50792 7.54906 6.25766 8.0287 5.8481C8.04003 5.8397 8.05041 5.83046 8.06016 5.82075C8.5809 5.3618 8.9064 4.71188 8.9064 3.99226C8.9064 2.6051 7.69725 1.47656 6.21101 1.47656ZM6.21101 5.96106C5.73261 5.96106 5.29109 5.81143 4.93683 5.55997C5.19432 5.13381 5.67483 4.86728 6.21101 4.86728C6.74719 4.86728 7.2277 5.13381 7.4852 5.55997C7.1309 5.81143 6.68941 5.96106 6.21101 5.96106ZM5.74225 3.88288V3.70514C5.74225 3.46391 5.95255 3.26763 6.21101 3.26763C6.46947 3.26763 6.67977 3.46391 6.67977 3.70514V3.88288C6.67977 4.12411 6.46947 4.32039 6.21101 4.32039C5.95255 4.32039 5.74225 4.12411 5.74225 3.88288ZM7.90852 5.1594C7.69245 4.86031 7.393 4.62769 7.04532 4.48407C7.18331 4.31763 7.26573 4.10913 7.26573 3.88288V3.70514C7.26573 3.16232 6.7926 2.72074 6.21101 2.72074C5.62942 2.72074 5.15629 3.16232 5.15629 3.70514V3.88288C5.15629 4.10913 5.23871 4.31763 5.3767 4.48407C5.02903 4.62769 4.72957 4.86031 4.5135 5.1594C4.25483 4.83255 4.10158 4.42887 4.10158 3.99226C4.10158 2.90665 5.04786 2.02345 6.21101 2.02345C7.37416 2.02345 8.32044 2.90665 8.32044 3.99226C8.32044 4.42887 8.16719 4.83255 7.90852 5.1594Z" fill="black"/>
</g>
</g>
<g id="Group_6">
<g id="Group_7">
<path id="Vector_3" d="M7.79326 11.9766H6.21119C6.04941 11.9766 5.91821 12.099 5.91821 12.25C5.91821 12.401 6.04941 12.5235 6.21119 12.5235H7.79326C7.95504 12.5235 8.08624 12.401 8.08624 12.25C8.08624 12.099 7.95504 11.9766 7.79326 11.9766Z" fill="black"/>
</g>
</g>
<g id="Group_8">
<g id="Group_9">
<path id="Vector_4" d="M7.79309 10.4453H3.63282C3.47104 10.4453 3.33984 10.5677 3.33984 10.7188C3.33984 10.8698 3.47104 10.9922 3.63282 10.9922H7.79309C7.95487 10.9922 8.08607 10.8698 8.08607 10.7188C8.08607 10.5677 7.95487 10.4453 7.79309 10.4453Z" fill="black"/>
</g>
</g>
<g id="Group_10">
<g id="Group_11">
<path id="Vector_5" d="M7.79309 8.91406H3.63282C3.47104 8.91406 3.33984 9.03648 3.33984 9.18751C3.33984 9.33853 3.47104 9.46095 3.63282 9.46095H7.79309C7.95487 9.46095 8.08607 9.33853 8.08607 9.18751C8.08607 9.03648 7.95487 8.91406 7.79309 8.91406Z" fill="black"/>
</g>
</g>
<g id="Group_12">
<g id="Group_13">
<path id="Vector_6" d="M2.58875 7.46293C2.53429 7.41207 2.4587 7.38281 2.38136 7.38281C2.30427 7.38281 2.22869 7.41207 2.17422 7.46293C2.11973 7.51379 2.08838 7.58434 2.08838 7.65626C2.08838 7.72817 2.1197 7.79872 2.17422 7.84958C2.22901 7.90044 2.30427 7.9297 2.38136 7.9297C2.4587 7.9297 2.534 7.90044 2.58875 7.84958C2.64325 7.79872 2.67463 7.72817 2.67463 7.65626C2.67463 7.58434 2.64328 7.51379 2.58875 7.46293Z" fill="black"/>
</g>
</g>
<g id="Group_14">
<g id="Group_15">
<path id="Vector_7" d="M2.58875 8.99418C2.534 8.94332 2.4587 8.91406 2.38136 8.91406C2.30427 8.91406 2.22901 8.94332 2.17422 8.99418C2.11973 9.04504 2.08838 9.11559 2.08838 9.18751C2.08838 9.25942 2.1197 9.32997 2.17422 9.38083C2.22901 9.43169 2.30427 9.46095 2.38136 9.46095C2.4587 9.46095 2.534 9.43169 2.58875 9.38083C2.64325 9.32997 2.67463 9.25942 2.67463 9.18751C2.67463 9.11559 2.64328 9.04504 2.58875 8.99418Z" fill="black"/>
</g>
</g>
<g id="Group_16">
<g id="Group_17">
<path id="Vector_8" d="M2.58875 10.5254C2.534 10.4746 2.4587 10.4453 2.38136 10.4453C2.30427 10.4453 2.22901 10.4746 2.17422 10.5254C2.11973 10.5763 2.08838 10.6468 2.08838 10.7188C2.08838 10.7907 2.1197 10.8612 2.17422 10.9121C2.22869 10.9629 2.30427 10.9922 2.38136 10.9922C2.4587 10.9922 2.53429 10.9629 2.58875 10.9121C2.64325 10.8612 2.67463 10.7907 2.67463 10.7188C2.67463 10.6468 2.64328 10.5763 2.58875 10.5254Z" fill="black"/>
</g>
</g>
<g id="Group_18">
<g id="Group_19">
<path id="Vector_9" d="M7.79309 7.38281H3.63282C3.47104 7.38281 3.33984 7.50523 3.33984 7.65626C3.33984 7.80728 3.47104 7.9297 3.63282 7.9297H7.79309C7.95487 7.9297 8.08607 7.80728 8.08607 7.65626C8.08607 7.50523 7.95487 7.38281 7.79309 7.38281Z" fill="black"/>
</g>
</g>
<g id="Group_20">
<g id="Group_21">
<path id="Vector_10" d="M14.385 3.56256C14.1004 3.40918 13.7688 3.36844 13.4513 3.44782C13.1338 3.52723 12.8685 3.71727 12.7042 3.98292L9.01728 9.94301C8.99709 9.97569 8.98432 10.0119 8.97983 10.0494L8.72032 12.219C8.70742 12.327 8.7642 12.4319 8.86499 12.4862C8.91049 12.5107 8.96103 12.5228 9.01145 12.5228C9.07274 12.5228 9.13379 12.5049 9.18521 12.4696L11.0686 11.175C11.1011 11.1526 11.1284 11.1242 11.1486 11.0915L14.8354 5.13142C15.1747 4.583 14.9726 3.87921 14.385 3.56256ZM9.37693 11.6586L9.51247 10.5256L10.3604 10.9825L9.37693 11.6586ZM10.7876 10.5812L9.67123 9.97965L12.6299 5.19683L13.7462 5.79841L10.7876 10.5812ZM14.328 4.85795L14.0392 5.3248L12.9228 4.72322L13.2116 4.25637C13.2977 4.11721 13.4367 4.01768 13.6029 3.97609C13.7693 3.93447 13.943 3.95585 14.092 4.03619C14.2411 4.11653 14.3478 4.24625 14.3923 4.40146C14.4369 4.55667 14.4141 4.71879 14.328 4.85795Z" fill="black"/>
</g>
</g>
</g>
</svg>
