<svg width="20" height="19" viewBox="0 0 20 19" fill="none" xmlns="http://www.w3.org/2000/svg">
<g id="svgexport-5(69) 1">
<g id="Group">
<path id="Vector" d="M0 13.5527H20V17.3075C20 17.4852 19.8455 17.6294 19.6551 17.6294H0.344843C0.154414 17.6294 0 17.4852 0 17.3075V13.5527Z" fill="#73AF00"/>
<path id="Vector_2" d="M0.344843 5.39941H19.6552C19.8456 5.39941 20 5.54353 20 5.72127V9.47603H0V5.72123C0 5.5435 0.154414 5.39941 0.344843 5.39941Z" fill="#464655"/>
<path id="Vector_3" d="M20 9.47559H0V13.552H20V9.47559Z" fill="#C8414B"/>
<g id="Group_2">
<path id="Vector_4" d="M20 9.26172H0V9.90539H20V9.26172Z" fill="#F5F5F5"/>
<path id="Vector_5" d="M20 13.124H0V13.7677H20V13.124Z" fill="#F5F5F5"/>
<path id="Vector_6" d="M11.8464 8.80251C12.124 8.26814 12.4138 7.03027 12.4138 7.03027C12.4138 7.03027 11.5516 8.009 11.2738 8.54333C11.2156 8.65533 11.2403 8.78413 11.3244 8.87127L8.16162 14.9574L8.37631 15.0546L11.5391 8.96847C11.6645 8.97616 11.7882 8.91451 11.8464 8.80251Z" fill="#F5F5F5"/>
<path id="Vector_7" d="M8.15356 8.80251C7.87591 8.26814 7.58618 7.03027 7.58618 7.03027C7.58618 7.03027 8.44837 8.009 8.7261 8.54333C8.7843 8.65533 8.75962 8.78413 8.67555 8.87127L11.8383 14.9574L11.6236 15.0546L8.46087 8.96847C8.3354 8.97616 8.21173 8.91451 8.15356 8.80251Z" fill="#F5F5F5"/>
</g>
<path id="Vector_8" d="M11.7241 11.5143C11.7241 13.2918 10.3174 14.7327 9.99996 14.7327C9.68253 14.7327 8.27582 13.2918 8.27582 11.5143C8.27582 9.7368 9.68253 8.2959 9.99996 8.2959C10.3174 8.2959 11.7241 9.7368 11.7241 11.5143Z" fill="#C8414B"/>
<g id="Group_3">
<path id="Vector_9" d="M11.3793 13.0675C11.5824 12.607 11.7241 12.078 11.7241 11.5147C11.7241 10.9514 11.5824 10.4225 11.3793 9.96191C11.1762 10.4224 11.0344 10.9514 11.0344 11.5147C11.0344 12.078 11.1762 12.607 11.3793 13.0675Z" fill="#464655"/>
<path id="Vector_10" d="M8.62066 9.96191C8.41758 10.4224 8.27582 10.9514 8.27582 11.5147C8.27582 12.078 8.41754 12.607 8.62066 13.0675C8.82375 12.607 8.9655 12.078 8.9655 11.5147C8.9655 10.9514 8.82375 10.4225 8.62066 9.96191Z" fill="#464655"/>
</g>
<g id="Group_4">
<path id="Vector_11" d="M9.99999 11.9967C10.1904 11.9967 10.3448 11.7806 10.3448 11.514C10.3448 11.2474 10.1904 11.0312 9.99999 11.0312C9.80954 11.0312 9.65515 11.2474 9.65515 11.514C9.65515 11.7806 9.80954 11.9967 9.99999 11.9967Z" fill="#F5F5F5"/>
<path id="Vector_12" d="M10.0517 8.2959V11.0315C10.1457 10.8489 10.3125 10.3091 10.3125 9.6637C10.3125 9.01828 10.1457 8.47855 10.0517 8.2959Z" fill="#F5F5F5"/>
<path id="Vector_13" d="M9.94828 8.2959C9.85426 8.47855 9.6875 9.01828 9.6875 9.6637C9.6875 10.3091 9.85426 10.8489 9.94828 11.0315V8.2959Z" fill="#F5F5F5"/>
<path id="Vector_14" d="M10.0517 11.9971V14.7327C10.1457 14.55 10.3125 14.0103 10.3125 13.3649C10.3125 12.7195 10.1457 12.1797 10.0517 11.9971Z" fill="#F5F5F5"/>
<path id="Vector_15" d="M9.94828 11.9971C9.85426 12.1797 9.6875 12.7195 9.6875 13.3649C9.6875 14.0103 9.85426 14.5501 9.94828 14.7327V11.9971Z" fill="#F5F5F5"/>
</g>
</g>
</g>
</svg>
