<svg width="32" height="32" viewBox="0 0 32 32" fill="none" xmlns="http://www.w3.org/2000/svg">
<path id="Vector" d="M16 0C7.16429 0 0 7.16429 0 16C0 24.8357 7.16429 32 16 32C24.8357 32 32 24.8357 32 16C32 7.16429 24.8357 0 16 0ZM21.9643 22.6286C20.5143 23.9643 18.5357 24.75 16.175 24.75C12.7571 24.75 9.8 22.7893 8.36071 19.9321C7.76786 18.75 7.42857 17.4143 7.42857 16C7.42857 14.5857 7.76786 13.25 8.36071 12.0679C9.8 9.20714 12.7571 7.24643 16.175 7.24643C18.5321 7.24643 20.5107 8.11429 22.0286 9.525L19.5214 12.0357C18.6143 11.1679 17.4607 10.7286 16.1786 10.7286C13.9 10.7286 11.9714 12.2679 11.2821 14.3357C11.1071 14.8607 11.0071 15.4214 11.0071 16C11.0071 16.5786 11.1071 17.1393 11.2821 17.6643C11.9714 19.7321 13.9 21.2714 16.175 21.2714C17.3536 21.2714 18.3536 20.9607 19.1357 20.4357C20.0643 19.8143 20.6786 18.8893 20.8821 17.7929H16.175V14.4071H24.4143C24.5179 14.9821 24.5714 15.5786 24.5714 16.1964C24.5714 18.8643 23.6179 21.1036 21.9643 22.6286Z" fill="#F24E1E"/>
</svg>
