<svg width="24" height="24" viewBox="0 0 24 24" fill="none" xmlns="http://www.w3.org/2000/svg">
<g opacity="0.64">
<path fill-rule="evenodd" clip-rule="evenodd" d="M7.16667 10.75C7.16667 7 9.66667 4.5 13.4167 4.5C17.1667 4.5 19.6667 7.625 19.6667 10.75C19.6667 12.6938 17.8531 15.3631 14.2258 18.7577C13.7628 19.191 13.0488 19.209 12.5646 18.7996C8.96597 15.7565 7.16667 13.0733 7.16667 10.75ZM13.4167 12C14.5673 12 15.5 11.0673 15.5 9.91667C15.5 8.76607 14.5673 7.83333 13.4167 7.83333C12.2661 7.83333 11.3333 8.76607 11.3333 9.91667C11.3333 11.0673 12.2661 12 13.4167 12Z" fill="#1B1D21"/>
</g>
</svg>
