<svg width="94" height="29" viewBox="0 0 94 29" fill="none" xmlns="http://www.w3.org/2000/svg">
<g id="Group 29">
<g id="Group">
<g id="Vector">
<path d="M14.1045 2.6284L23.698 10.162H4.51132L14.1045 2.6284ZM27.7673 10.4115L14.8271 0.248964C14.4038 -0.083313 13.8056 -0.083313 13.3824 0.248964L0.441712 10.4115C0.0531731 10.7165 -0.0980107 11.2324 0.064591 11.6969C0.227345 12.1617 0.668714 12.4727 1.16398 12.4727H3.50161V18.0943L5.82979 19.731V12.4727H22.3794V16.5983L24.7076 14.9728V12.4727H27.0449C27.5403 12.4727 27.9817 12.1617 28.1447 11.6969C28.3073 11.2324 28.1558 10.7165 27.7673 10.4115Z" fill="#161616"/>
<path d="M14.1045 2.6284L23.698 10.162H4.51132L14.1045 2.6284ZM27.7673 10.4115L14.8271 0.248964C14.4038 -0.083313 13.8056 -0.083313 13.3824 0.248964L0.441712 10.4115C0.0531731 10.7165 -0.0980107 11.2324 0.064591 11.6969C0.227345 12.1617 0.668714 12.4727 1.16398 12.4727H3.50161V18.0943L5.82979 19.731V12.4727H22.3794V16.5983L24.7076 14.9728V12.4727H27.0449C27.5403 12.4727 27.9817 12.1617 28.1447 11.6969C28.3073 11.2324 28.1558 10.7165 27.7673 10.4115Z" fill="black" fill-opacity="0.2"/>
</g>
<g id="Vector_2">
<path d="M11.837 25.8414L3.50134 19.9821V22.8337L11.166 28.1993C11.3674 28.3401 11.602 28.4106 11.837 28.4106C12.0719 28.4106 12.307 28.3401 12.5081 28.1994L24.7073 19.6595V16.8559L11.837 25.8414Z" fill="#161616"/>
<path d="M11.837 25.8414L3.50134 19.9821V22.8337L11.166 28.1993C11.3674 28.3401 11.602 28.4106 11.837 28.4106C12.0719 28.4106 12.307 28.3401 12.5081 28.1994L24.7073 19.6595V16.8559L11.837 25.8414Z" fill="black" fill-opacity="0.2"/>
</g>
</g>
<g id="Group 28">
<g id="Vector_3">
<path d="M38.2147 10.8228C38.2147 10.6619 38.1617 10.5588 38.056 10.5149C37.95 10.4707 37.8248 10.4418 37.6796 10.4271V10.1631H41.3857V10.4271C41.2401 10.4418 41.1183 10.4707 41.0188 10.5149C40.9197 10.5588 40.8705 10.6619 40.8705 10.8228V17.5984H46.301C46.3801 17.5984 46.4596 17.5652 46.5388 17.4993C46.6179 17.4335 46.6575 17.2832 46.6575 17.0484H46.8956V20.3262H46.6575C46.6575 20.0914 46.6179 19.9521 46.5388 19.9082C46.4596 19.864 46.3801 19.8423 46.301 19.8423H37.6796V19.5783C37.8248 19.5637 37.95 19.5341 38.056 19.4902C38.1617 19.4463 38.2147 19.3439 38.2147 19.1823V10.8228Z" fill="#161616"/>
<path d="M38.2147 10.8228C38.2147 10.6619 38.1617 10.5588 38.056 10.5149C37.95 10.4707 37.8248 10.4418 37.6796 10.4271V10.1631H41.3857V10.4271C41.2401 10.4418 41.1183 10.4707 41.0188 10.5149C40.9197 10.5588 40.8705 10.6619 40.8705 10.8228V17.5984H46.301C46.3801 17.5984 46.4596 17.5652 46.5388 17.4993C46.6179 17.4335 46.6575 17.2832 46.6575 17.0484H46.8956V20.3262H46.6575C46.6575 20.0914 46.6179 19.9521 46.5388 19.9082C46.4596 19.864 46.3801 19.8423 46.301 19.8423H37.6796V19.5783C37.8248 19.5637 37.95 19.5341 38.056 19.4902C38.1617 19.4463 38.2147 19.3439 38.2147 19.1823V10.8228Z" fill="black" fill-opacity="0.2"/>
</g>
<g id="Vector_4">
<path d="M53.3575 12.5652L51.765 16.6071H54.9889L53.3575 12.5652ZM55.96 20.049C55.9988 20.049 56.0501 20.0413 56.1155 20.0256C56.1799 20.0106 56.2123 19.9488 56.2123 19.8409C56.2123 19.7794 56.1893 19.6834 56.1445 19.5521C56.099 19.4216 56.0474 19.2788 55.989 19.1248C55.9307 18.9712 55.869 18.8168 55.8046 18.6629C55.7395 18.5089 55.6879 18.378 55.6491 18.2704H51.1435C51.1172 18.378 51.0754 18.5089 51.0174 18.6629C50.9591 18.8168 50.8973 18.9712 50.8329 19.1248C50.7679 19.2788 50.7095 19.4216 50.6579 19.5521C50.606 19.6834 50.5804 19.7794 50.5804 19.8409C50.5804 19.9488 50.6124 20.0106 50.6775 20.0256C50.7419 20.0413 50.7938 20.049 50.8329 20.049V20.3262H47.9196V20.049C47.9974 20.049 48.075 20.0298 48.1526 19.991C48.2305 19.9526 48.2817 19.895 48.308 19.8175C48.6965 18.7404 49.0913 17.6738 49.4926 16.6187C49.8942 15.5643 50.2533 14.609 50.5706 13.7547C50.8879 12.9 51.1499 12.1919 51.3569 11.6295C51.5643 11.0677 51.6678 10.7486 51.6678 10.6711C51.6678 10.5328 51.5835 10.4557 51.4153 10.4403V10.1631H55.4741V10.4403C55.3059 10.4557 55.2219 10.5328 55.2219 10.6711C55.2219 10.7172 55.2897 10.9218 55.4259 11.2831C55.5618 11.6452 55.7395 12.0998 55.96 12.6458C56.1799 13.1929 56.4227 13.7973 56.688 14.4592C56.9534 15.1212 57.2188 15.7839 57.4842 16.4455C57.7495 17.1078 57.9991 17.7356 58.2321 18.3281C58.4651 18.9209 58.6525 19.4177 58.7952 19.8175C58.8211 19.895 58.8727 19.9526 58.9506 19.991C59.0282 20.0298 59.1061 20.049 59.1836 20.049V20.3262H55.96V20.049Z" fill="#161616"/>
<path d="M53.3575 12.5652L51.765 16.6071H54.9889L53.3575 12.5652ZM55.96 20.049C55.9988 20.049 56.0501 20.0413 56.1155 20.0256C56.1799 20.0106 56.2123 19.9488 56.2123 19.8409C56.2123 19.7794 56.1893 19.6834 56.1445 19.5521C56.099 19.4216 56.0474 19.2788 55.989 19.1248C55.9307 18.9712 55.869 18.8168 55.8046 18.6629C55.7395 18.5089 55.6879 18.378 55.6491 18.2704H51.1435C51.1172 18.378 51.0754 18.5089 51.0174 18.6629C50.9591 18.8168 50.8973 18.9712 50.8329 19.1248C50.7679 19.2788 50.7095 19.4216 50.6579 19.5521C50.606 19.6834 50.5804 19.7794 50.5804 19.8409C50.5804 19.9488 50.6124 20.0106 50.6775 20.0256C50.7419 20.0413 50.7938 20.049 50.8329 20.049V20.3262H47.9196V20.049C47.9974 20.049 48.075 20.0298 48.1526 19.991C48.2305 19.9526 48.2817 19.895 48.308 19.8175C48.6965 18.7404 49.0913 17.6738 49.4926 16.6187C49.8942 15.5643 50.2533 14.609 50.5706 13.7547C50.8879 12.9 51.1499 12.1919 51.3569 11.6295C51.5643 11.0677 51.6678 10.7486 51.6678 10.6711C51.6678 10.5328 51.5835 10.4557 51.4153 10.4403V10.1631H55.4741V10.4403C55.3059 10.4557 55.2219 10.5328 55.2219 10.6711C55.2219 10.7172 55.2897 10.9218 55.4259 11.2831C55.5618 11.6452 55.7395 12.0998 55.96 12.6458C56.1799 13.1929 56.4227 13.7973 56.688 14.4592C56.9534 15.1212 57.2188 15.7839 57.4842 16.4455C57.7495 17.1078 57.9991 17.7356 58.2321 18.3281C58.4651 18.9209 58.6525 19.4177 58.7952 19.8175C58.8211 19.895 58.8727 19.9526 58.9506 19.991C59.0282 20.0298 59.1061 20.049 59.1836 20.049V20.3262H55.96V20.049Z" fill="black" fill-opacity="0.2"/>
</g>
<g id="Vector_5">
<path d="M66.4573 18.3857C66.9008 18.3857 67.2746 18.2931 67.5784 18.1084C67.8823 17.9237 68.0344 17.6004 68.0344 17.1385C68.0344 16.8306 67.9872 16.5921 67.8922 16.4225C67.7972 16.2535 67.6738 16.1302 67.5217 16.0527C67.3696 15.9763 67.2013 15.9298 67.0179 15.9145C66.8344 15.8991 66.6474 15.8911 66.4573 15.8911H64.3864V18.3857H66.4573ZM66.6474 14.3203C67.1413 14.3203 67.4738 14.2131 67.6451 13.9973C67.816 13.7816 67.9014 13.5201 67.9014 13.2121C67.9014 12.7499 67.7972 12.4496 67.588 12.3113C67.3791 12.1724 67.0654 12.1033 66.6474 12.1033H64.3864V14.3203H66.6474ZM61.8401 10.8561C61.8401 10.6868 61.786 10.5789 61.6784 10.5328C61.5705 10.4864 61.4217 10.4557 61.2317 10.4403V10.1631H66.9516C67.5217 10.1631 68.009 10.1977 68.4148 10.2668C68.8199 10.3363 69.1492 10.4634 69.4029 10.648C69.6559 10.8327 69.8427 11.0908 69.9631 11.4221C70.0835 11.7531 70.1439 12.1724 70.1439 12.6807C70.1439 13.1737 70.0202 13.6161 69.7734 14.0089C69.5263 14.4016 69.2317 14.6981 68.8895 14.8981C69.4029 15.0985 69.7905 15.3869 70.0535 15.764C70.3161 16.1417 70.4478 16.6763 70.4478 17.3697C70.4478 18.2781 70.1812 18.998 69.648 19.5291C69.1149 20.0605 68.2452 20.3262 67.039 20.3262H61.2317V20.049C61.4217 20.0336 61.5705 20.0025 61.6784 19.9564C61.786 19.91 61.8401 19.8028 61.8401 19.6328V10.8561Z" fill="#161616"/>
<path d="M66.4573 18.3857C66.9008 18.3857 67.2746 18.2931 67.5784 18.1084C67.8823 17.9237 68.0344 17.6004 68.0344 17.1385C68.0344 16.8306 67.9872 16.5921 67.8922 16.4225C67.7972 16.2535 67.6738 16.1302 67.5217 16.0527C67.3696 15.9763 67.2013 15.9298 67.0179 15.9145C66.8344 15.8991 66.6474 15.8911 66.4573 15.8911H64.3864V18.3857H66.4573ZM66.6474 14.3203C67.1413 14.3203 67.4738 14.2131 67.6451 13.9973C67.816 13.7816 67.9014 13.5201 67.9014 13.2121C67.9014 12.7499 67.7972 12.4496 67.588 12.3113C67.3791 12.1724 67.0654 12.1033 66.6474 12.1033H64.3864V14.3203H66.6474ZM61.8401 10.8561C61.8401 10.6868 61.786 10.5789 61.6784 10.5328C61.5705 10.4864 61.4217 10.4557 61.2317 10.4403V10.1631H66.9516C67.5217 10.1631 68.009 10.1977 68.4148 10.2668C68.8199 10.3363 69.1492 10.4634 69.4029 10.648C69.6559 10.8327 69.8427 11.0908 69.9631 11.4221C70.0835 11.7531 70.1439 12.1724 70.1439 12.6807C70.1439 13.1737 70.0202 13.6161 69.7734 14.0089C69.5263 14.4016 69.2317 14.6981 68.8895 14.8981C69.4029 15.0985 69.7905 15.3869 70.0535 15.764C70.3161 16.1417 70.4478 16.6763 70.4478 17.3697C70.4478 18.2781 70.1812 18.998 69.648 19.5291C69.1149 20.0605 68.2452 20.3262 67.039 20.3262H61.2317V20.049C61.4217 20.0336 61.5705 20.0025 61.6784 19.9564C61.786 19.91 61.8401 19.8028 61.8401 19.6328V10.8561Z" fill="black" fill-opacity="0.2"/>
</g>
<g id="Vector_6">
<path d="M77.6159 12.5626C77.258 12.5626 76.919 12.6272 76.5994 12.7559C76.2798 12.8845 75.9988 13.0665 75.7557 13.3013C75.513 13.5363 75.3242 13.8206 75.19 14.1535C75.0562 14.4871 74.9886 14.8659 74.9886 15.2901C74.9886 15.7144 75.0562 16.0932 75.19 16.4264C75.3242 16.76 75.513 17.044 75.7557 17.2787C75.9988 17.5137 76.2798 17.6958 76.5994 17.8244C76.919 17.9534 77.258 18.0174 77.6159 18.0174C77.9865 18.0174 78.3284 17.9534 78.6417 17.8244C78.9547 17.6958 79.233 17.5137 79.4761 17.2787C79.7184 17.044 79.9075 16.76 80.0417 16.4264C80.1759 16.0932 80.2432 15.7144 80.2432 15.2901C80.2432 14.8659 80.1759 14.4871 80.0417 14.1535C79.9075 13.8206 79.7184 13.5363 79.4761 13.3013C79.233 13.0665 78.9547 12.8845 78.6417 12.7559C78.3284 12.6272 77.9865 12.5626 77.6159 12.5626ZM77.6159 10.1631C78.2169 10.1631 78.8208 10.2613 79.4278 10.4577C80.0351 10.6537 80.5848 10.9593 81.0772 11.3739C81.5693 11.7893 81.9688 12.3213 82.2758 12.9697C82.5824 13.6191 82.7359 14.3886 82.7359 15.2785C82.7359 16.1842 82.5824 16.9578 82.2758 17.5989C81.9688 18.2405 81.5693 18.7646 81.0772 19.1718C80.5848 19.5793 80.0351 19.8735 79.4278 20.0545C78.8208 20.2358 78.2169 20.3262 77.6159 20.3262C77.0149 20.3262 76.411 20.2358 75.804 20.0545C75.1964 19.8735 74.6467 19.5793 74.1546 19.1718C73.6625 18.7646 73.263 18.2405 72.9563 17.5989C72.6493 16.9578 72.4958 16.1842 72.4958 15.2785C72.4958 14.3886 72.6493 13.6191 72.9563 12.9697C73.263 12.3213 73.6625 11.7893 74.1546 11.3739C74.6467 10.9593 75.1964 10.6537 75.804 10.4577C76.411 10.2613 77.0149 10.1631 77.6159 10.1631Z" fill="#161616"/>
<path d="M77.6159 12.5626C77.258 12.5626 76.919 12.6272 76.5994 12.7559C76.2798 12.8845 75.9988 13.0665 75.7557 13.3013C75.513 13.5363 75.3242 13.8206 75.19 14.1535C75.0562 14.4871 74.9886 14.8659 74.9886 15.2901C74.9886 15.7144 75.0562 16.0932 75.19 16.4264C75.3242 16.76 75.513 17.044 75.7557 17.2787C75.9988 17.5137 76.2798 17.6958 76.5994 17.8244C76.919 17.9534 77.258 18.0174 77.6159 18.0174C77.9865 18.0174 78.3284 17.9534 78.6417 17.8244C78.9547 17.6958 79.233 17.5137 79.4761 17.2787C79.7184 17.044 79.9075 16.76 80.0417 16.4264C80.1759 16.0932 80.2432 15.7144 80.2432 15.2901C80.2432 14.8659 80.1759 14.4871 80.0417 14.1535C79.9075 13.8206 79.7184 13.5363 79.4761 13.3013C79.233 13.0665 78.9547 12.8845 78.6417 12.7559C78.3284 12.6272 77.9865 12.5626 77.6159 12.5626ZM77.6159 10.1631C78.2169 10.1631 78.8208 10.2613 79.4278 10.4577C80.0351 10.6537 80.5848 10.9593 81.0772 11.3739C81.5693 11.7893 81.9688 12.3213 82.2758 12.9697C82.5824 13.6191 82.7359 14.3886 82.7359 15.2785C82.7359 16.1842 82.5824 16.9578 82.2758 17.5989C81.9688 18.2405 81.5693 18.7646 81.0772 19.1718C80.5848 19.5793 80.0351 19.8735 79.4278 20.0545C78.8208 20.2358 78.2169 20.3262 77.6159 20.3262C77.0149 20.3262 76.411 20.2358 75.804 20.0545C75.1964 19.8735 74.6467 19.5793 74.1546 19.1718C73.6625 18.7646 73.263 18.2405 72.9563 17.5989C72.6493 16.9578 72.4958 16.1842 72.4958 15.2785C72.4958 14.3886 72.6493 13.6191 72.9563 12.9697C73.263 12.3213 73.6625 11.7893 74.1546 11.3739C74.6467 10.9593 75.1964 10.6537 75.804 10.4577C76.411 10.2613 77.0149 10.1631 77.6159 10.1631Z" fill="black" fill-opacity="0.2"/>
</g>
<g id="Vector_7">
<path d="M90.1507 14.5977C90.5456 14.5977 90.8566 14.494 91.0851 14.2859C91.3132 14.0781 91.4276 13.7663 91.4276 13.3505C91.4276 12.9965 91.3318 12.7 91.1407 12.4612C90.9492 12.2224 90.5761 12.103 90.0212 12.103H87.5226V14.5977H90.1507ZM85.1908 10.8558C85.1908 10.6868 85.1477 10.5786 85.0613 10.5325C84.9752 10.4864 84.8823 10.4557 84.7837 10.4403V10.1631H90.7242C91.6496 10.1631 92.3867 10.4323 92.9359 10.9714C93.4847 11.5105 93.7591 12.3111 93.7591 13.3735C93.7591 14.2052 93.565 14.8634 93.1765 15.3483C92.7877 15.8337 92.2974 16.2146 91.7052 16.4918L93.3523 19.587C93.4137 19.7106 93.5033 19.8178 93.6206 19.9103C93.7376 20.0025 93.8642 20.0489 93.9998 20.0489V20.3262H90.2619V20.0489C90.3476 20.0489 90.4434 20.0301 90.5485 19.991C90.6529 19.9529 90.7059 19.8719 90.7059 19.7487C90.7059 19.6719 90.641 19.4795 90.5115 19.1715C90.382 18.8636 90.2339 18.5326 90.0671 18.1782C89.901 17.8238 89.7404 17.4851 89.5861 17.1618C89.4319 16.8382 89.3365 16.6304 89.2995 16.5382H87.5226V19.6331C87.5226 19.8028 87.5689 19.9103 87.6614 19.9568C87.754 20.0025 87.868 20.0336 88.0036 20.0489V20.3262H84.8206V20.0489C84.8949 20.0336 84.9752 20.0025 85.0613 19.9568C85.1477 19.9103 85.1908 19.8028 85.1908 19.6331V10.8558Z" fill="#161616"/>
<path d="M90.1507 14.5977C90.5456 14.5977 90.8566 14.494 91.0851 14.2859C91.3132 14.0781 91.4276 13.7663 91.4276 13.3505C91.4276 12.9965 91.3318 12.7 91.1407 12.4612C90.9492 12.2224 90.5761 12.103 90.0212 12.103H87.5226V14.5977H90.1507ZM85.1908 10.8558C85.1908 10.6868 85.1477 10.5786 85.0613 10.5325C84.9752 10.4864 84.8823 10.4557 84.7837 10.4403V10.1631H90.7242C91.6496 10.1631 92.3867 10.4323 92.9359 10.9714C93.4847 11.5105 93.7591 12.3111 93.7591 13.3735C93.7591 14.2052 93.565 14.8634 93.1765 15.3483C92.7877 15.8337 92.2974 16.2146 91.7052 16.4918L93.3523 19.587C93.4137 19.7106 93.5033 19.8178 93.6206 19.9103C93.7376 20.0025 93.8642 20.0489 93.9998 20.0489V20.3262H90.2619V20.0489C90.3476 20.0489 90.4434 20.0301 90.5485 19.991C90.6529 19.9529 90.7059 19.8719 90.7059 19.7487C90.7059 19.6719 90.641 19.4795 90.5115 19.1715C90.382 18.8636 90.2339 18.5326 90.0671 18.1782C89.901 17.8238 89.7404 17.4851 89.5861 17.1618C89.4319 16.8382 89.3365 16.6304 89.2995 16.5382H87.5226V19.6331C87.5226 19.8028 87.5689 19.9103 87.6614 19.9568C87.754 20.0025 87.868 20.0336 88.0036 20.0489V20.3262H84.8206V20.0489C84.8949 20.0336 84.9752 20.0025 85.0613 19.9568C85.1477 19.9103 85.1908 19.8028 85.1908 19.6331V10.8558Z" fill="black" fill-opacity="0.2"/>
</g>
</g>
</g>
</svg>
