<svg width="24" height="24" viewBox="0 0 24 24" fill="none" xmlns="http://www.w3.org/2000/svg">
<g id="Iconly/Bold/Logout" opacity="0.63">
<g id="Logout">
<path id="Logout_2" fill-rule="evenodd" clip-rule="evenodd" d="M10.5426 10.6486C10.18 10.6486 9.89339 10.9303 9.89339 11.2866C9.89339 11.6347 10.18 11.9247 10.5426 11.9247H15.6013V15.8857C15.6013 17.9159 13.9235 19.5733 11.8494 19.5733H7.74344C5.6778 19.5733 4 17.9242 4 15.894V6.68755C4 4.64904 5.68623 3 7.75187 3H11.8663C13.9235 3 15.6013 4.64904 15.6013 6.67927V10.6486H10.5426ZM18.6096 8.41959L21.0293 10.831C21.1536 10.9553 21.2199 11.1127 21.2199 11.2868C21.2199 11.4525 21.1536 11.6182 21.0293 11.7342L18.6096 14.1457C18.4853 14.27 18.3196 14.3362 18.1621 14.3362C17.9964 14.3362 17.8307 14.27 17.7064 14.1457C17.4578 13.8971 17.4578 13.491 17.7064 13.2424L19.0322 11.9248H15.6015V10.6487H19.0322L17.7064 9.33112C17.4578 9.08252 17.4578 8.67647 17.7064 8.42787C17.9549 8.17099 18.361 8.17099 18.6096 8.41959Z" fill="#1B1D21"/>
</g>
</g>
</svg>
