<svg width="17" height="16" viewBox="0 0 17 16" fill="none" xmlns="http://www.w3.org/2000/svg">
<g id="Group 33711">
<g id="Group">
<path id="Vector" d="M12.898 10.7759C13.5291 10.7759 14.0408 10.2643 14.0408 9.63309C14.0408 9.00191 13.5291 8.49023 12.898 8.49023C12.2668 8.49023 11.7551 9.00191 11.7551 9.63309C11.7551 10.2643 12.2668 10.7759 12.898 10.7759Z" fill="#6F7073"/>
<path id="Vector_2" d="M15.3469 2.96816V1.95918C15.347 1.44463 15.1446 0.950704 14.7835 0.584119C14.4224 0.217534 13.9316 0.00771834 13.4171 0H3.20653C0.32653 0 0.0359184 2.36082 0 3.55265V3.59184V14.0408C0 14.5604 0.206413 15.0588 0.573832 15.4262C0.94125 15.7936 1.43958 16 1.95918 16H15.0204C15.54 16 16.0383 15.7936 16.4058 15.4262C16.7732 15.0588 16.9796 14.5604 16.9796 14.0408V4.89796C16.9791 4.43531 16.8149 3.98774 16.5161 3.63454C16.2173 3.28133 15.8031 3.04527 15.3469 2.96816ZM3.20653 1.30612H13.4171C13.5852 1.31369 13.7439 1.38582 13.86 1.50749C13.9762 1.62915 14.041 1.79095 14.0408 1.95918V2.93878H1.3649C1.53143 1.75347 2.07347 1.30612 3.20653 1.30612ZM15.6058 13.8919C15.6058 14.0651 1.4286 4.77549 1.30612 4.89796C1.18365 5.02043 15.1936 14.6939 15.0204 14.6939H1.95918C1.78598 14.6939 1.61987 14.6251 1.4974 14.5026C1.37493 14.3801 1.5 14.6732 1.5 14.5L1.30612 4.2449L1.3649 14.6939H8.4898L15.4822 15.4262L16 9V4.2449H15.0204C16.4058 4.43618 15.3597 4.3137 15.4822 4.43618C15.6047 4.55865 15.6735 4.72476 15.6735 4.89796L15.6058 13.8919Z" fill="#6F7073"/>
</g>
<circle id="Ellipse 141" cx="13" cy="10" r="1" fill="white"/>
</g>
</svg>
