<svg width="80" height="24" viewBox="0 0 80 24" fill="none" xmlns="http://www.w3.org/2000/svg">
<g id="Group 31">
<g id="Group">
<path id="Vector" d="M11.9147 2.2208L20.0187 8.58471H3.81094L11.9147 2.2208ZM23.4561 8.79545L12.5251 0.210808C12.1675 -0.0698795 11.6622 -0.0698795 11.3047 0.210808L0.373191 8.79545C0.0449783 9.05316 -0.0827322 9.48893 0.0546234 9.88131C0.192108 10.2739 0.564949 10.5366 0.983317 10.5366H2.958V15.2855L4.92471 16.668V10.5366H18.9048V14.0217L20.8715 12.6486V10.5366H22.8459C23.2644 10.5366 23.6372 10.2739 23.775 9.88131C23.9123 9.48893 23.7844 9.05316 23.4561 8.79545Z" fill="white"/>
<path id="Vector_2" d="M9.99929 21.8297L2.95789 16.8801V19.2889L9.43251 23.8214C9.60266 23.9404 9.80085 24 9.99929 24C10.1977 24 10.3963 23.9404 10.5662 23.8216L20.8714 16.6075V14.2393L9.99929 21.8297Z" fill="white"/>
</g>
<g id="Group 28">
<path id="Vector_3" d="M32.2814 9.1421C32.2814 9.00614 32.2366 8.91906 32.1474 8.88198C32.0578 8.84462 31.952 8.82019 31.8293 8.80783V8.58479H34.96V8.80783C34.8371 8.82019 34.7342 8.84462 34.6502 8.88198C34.5664 8.91906 34.5249 9.00614 34.5249 9.1421V14.8657H39.1122C39.1791 14.8657 39.2462 14.8376 39.3131 14.782C39.3799 14.7264 39.4133 14.5994 39.4133 14.4011H39.6145V17.1699H39.4133C39.4133 16.9716 39.3799 16.8539 39.3131 16.8168C39.2462 16.7795 39.1791 16.7612 39.1122 16.7612H31.8293V16.5382C31.952 16.5258 32.0578 16.5008 32.1474 16.4637C32.2366 16.4267 32.2814 16.3401 32.2814 16.2036V9.1421Z" fill="white"/>
<path id="Vector_4" d="M45.0732 10.6139L43.7278 14.0283H46.4512L45.0732 10.6139ZM47.2716 16.9357C47.3043 16.9357 47.3476 16.9293 47.4029 16.916C47.4573 16.9033 47.4846 16.8511 47.4846 16.76C47.4846 16.7081 47.4653 16.627 47.4274 16.5161C47.3889 16.4058 47.3454 16.2851 47.2961 16.1551C47.2468 16.0253 47.1947 15.8949 47.1403 15.7649C47.0853 15.6348 47.0417 15.5242 47.009 15.4334H43.2029C43.1807 15.5242 43.1453 15.6348 43.0963 15.7649C43.0471 15.8949 42.9949 16.0253 42.9405 16.1551C42.8856 16.2851 42.8363 16.4058 42.7927 16.5161C42.7488 16.627 42.7272 16.7081 42.7272 16.76C42.7272 16.8511 42.7543 16.9033 42.8092 16.916C42.8636 16.9293 42.9075 16.9357 42.9405 16.9357V17.1699H40.4795V16.9357C40.5453 16.9357 40.6108 16.9195 40.6763 16.8868C40.7421 16.8543 40.7854 16.8057 40.8076 16.7402C41.1358 15.8303 41.4693 14.9293 41.8083 14.0381C42.1475 13.1474 42.4509 12.3404 42.7189 11.6187C42.987 10.8968 43.2083 10.2986 43.3832 9.8235C43.5584 9.34896 43.6458 9.07939 43.6458 9.01392C43.6458 8.89712 43.5746 8.83194 43.4325 8.81897V8.58479H46.8611V8.81897C46.719 8.83194 46.6481 8.89712 46.6481 9.01392C46.6481 9.05285 46.7053 9.22568 46.8204 9.53093C46.9352 9.83677 47.0853 10.2208 47.2716 10.682C47.4573 11.1442 47.6624 11.6547 47.8866 12.2139C48.1107 12.7731 48.3349 13.3329 48.5591 13.8918C48.7832 14.4513 48.994 14.9815 49.1909 15.482C49.3877 15.9828 49.5461 16.4025 49.6665 16.7402C49.6885 16.8057 49.7321 16.8543 49.7979 16.8868C49.8634 16.9195 49.9292 16.9357 49.9947 16.9357V17.1699H47.2716V16.9357Z" fill="white"/>
<path id="Vector_5" d="M56.139 15.5307C56.5136 15.5307 56.8294 15.4525 57.086 15.2965C57.3427 15.1405 57.4712 14.8674 57.4712 14.4772C57.4712 14.2171 57.4314 14.0156 57.3511 13.8723C57.2708 13.7296 57.1666 13.6254 57.0381 13.56C56.9096 13.4954 56.7675 13.4562 56.6125 13.4432C56.4576 13.4302 56.2996 13.4234 56.139 13.4234H54.3896V15.5307H56.139ZM56.2996 12.0965C56.7168 12.0965 56.9977 12.006 57.1423 11.8237C57.2867 11.6415 57.3589 11.4205 57.3589 11.1604C57.3589 10.7699 57.2708 10.5163 57.0941 10.3995C56.9177 10.2821 56.6527 10.2237 56.2996 10.2237H54.3896V12.0965H56.2996ZM52.2387 9.17023C52.2387 9.02719 52.1929 8.93605 52.1021 8.89712C52.011 8.8579 51.8853 8.83194 51.7247 8.81897V8.58479H56.5565C57.0381 8.58479 57.4497 8.61399 57.7925 8.67239C58.1348 8.73108 58.4129 8.83843 58.6272 8.99445C58.841 9.15047 58.9988 9.36842 59.1005 9.64831C59.2022 9.92791 59.2532 10.2821 59.2532 10.7115C59.2532 11.128 59.1487 11.5017 58.9402 11.8335C58.7315 12.1652 58.4826 12.4156 58.1936 12.5846C58.6272 12.7539 58.9547 12.9975 59.1768 13.3161C59.3987 13.6352 59.5099 14.0867 59.5099 14.6725C59.5099 15.4399 59.2847 16.048 58.8343 16.4966C58.3839 16.9455 57.6493 17.1699 56.6304 17.1699H51.7247V16.9357C51.8853 16.9228 52.011 16.8965 52.1021 16.8576C52.1929 16.8184 52.2387 16.7278 52.2387 16.5842V9.17023Z" fill="white"/>
<path id="Vector_6" d="M65.565 10.6117C65.2626 10.6117 64.9763 10.6663 64.7063 10.775C64.4363 10.8837 64.1989 11.0374 63.9936 11.2357C63.7886 11.4343 63.6291 11.6744 63.5158 11.9557C63.4027 12.2375 63.3456 12.5574 63.3456 12.9158C63.3456 13.2742 63.4027 13.5941 63.5158 13.8756C63.6291 14.1574 63.7886 14.3973 63.9936 14.5956C64.1989 14.7942 64.4363 14.9479 64.7063 15.0566C64.9763 15.1655 65.2626 15.2196 65.565 15.2196C65.878 15.2196 66.1668 15.1655 66.4315 15.0566C66.6959 14.9479 66.931 14.7942 67.1363 14.5956C67.3411 14.3973 67.5008 14.1574 67.6142 13.8756C67.7275 13.5941 67.7843 13.2742 67.7843 12.9158C67.7843 12.5574 67.7275 12.2375 67.6142 11.9557C67.5008 11.6744 67.3411 11.4343 67.1363 11.2357C66.931 11.0374 66.6959 10.8837 66.4315 10.775C66.1668 10.6663 65.878 10.6117 65.565 10.6117ZM65.565 8.58479C66.0726 8.58479 66.5828 8.66774 67.0955 8.83364C67.6085 8.99925 68.0729 9.25735 68.4888 9.60764C68.9045 9.95852 69.242 10.4079 69.5013 10.9556C69.7604 11.5042 69.89 12.1542 69.89 12.906C69.89 13.671 69.7604 14.3245 69.5013 14.8661C69.242 15.408 68.9045 15.8508 68.4888 16.1948C68.0729 16.539 67.6085 16.7875 67.0955 16.9404C66.5828 17.0936 66.0726 17.1699 65.565 17.1699C65.0573 17.1699 64.5471 17.0936 64.0344 16.9404C63.5211 16.7875 63.0568 16.539 62.6411 16.1948C62.2254 15.8508 61.8879 15.408 61.6288 14.8661C61.3695 14.3245 61.2399 13.671 61.2399 12.906C61.2399 12.1542 61.3695 11.5042 61.6288 10.9556C61.8879 10.4079 62.2254 9.95852 62.6411 9.60764C63.0568 9.25735 63.5211 8.99925 64.0344 8.83364C64.5471 8.66774 65.0573 8.58479 65.565 8.58479Z" fill="white"/>
<path id="Vector_7" d="M76.1537 12.3308C76.4873 12.3308 76.75 12.2432 76.943 12.0675C77.1357 11.892 77.2324 11.6286 77.2324 11.2773C77.2324 10.9782 77.1515 10.7278 76.99 10.5261C76.8282 10.3244 76.5131 10.2235 76.0443 10.2235H73.9337V12.3308H76.1537ZM71.9639 9.16995C71.9639 9.0272 71.9275 8.93577 71.8545 8.89684C71.7818 8.85791 71.7033 8.83195 71.62 8.81898V8.58479H76.6382C77.4199 8.58479 78.0426 8.81219 78.5064 9.26758C78.97 9.72297 79.2018 10.3993 79.2018 11.2968C79.2018 11.9993 79.0379 12.5553 78.7097 12.965C78.3813 13.3749 77.9671 13.6967 77.4669 13.9309L78.8582 16.5455C78.9101 16.6499 78.9858 16.7405 79.0849 16.8186C79.1837 16.8965 79.2906 16.9357 79.4051 16.9357V17.1699H76.2476V16.9357C76.3201 16.9357 76.401 16.9198 76.4897 16.8868C76.5779 16.8546 76.6227 16.7862 76.6227 16.6821C76.6227 16.6172 76.5679 16.4547 76.4585 16.1946C76.3491 15.9344 76.224 15.6548 76.0831 15.3554C75.9428 15.0561 75.8071 14.77 75.6768 14.4969C75.5465 14.2235 75.4659 14.048 75.4347 13.9701H73.9337V16.5845C73.9337 16.7278 73.9727 16.8186 74.0509 16.8579C74.1291 16.8965 74.2255 16.9228 74.34 16.9357V17.1699H71.6512V16.9357C71.7139 16.9228 71.7818 16.8965 71.8545 16.8579C71.9275 16.8186 71.9639 16.7278 71.9639 16.5845V9.16995Z" fill="white"/>
</g>
</g>
</svg>
